<?xml version="1.0" encoding="utf-8"?>
<!-- Generator: Adobe Illustrator 24.1.2, SVG Export Plug-In . SVG Version: 6.00 Build 0)  -->
<svg version="1.1" id="Layer_1" xmlns="http://www.w3.org/2000/svg" xmlns:xlink="http://www.w3.org/1999/xlink" x="0px" y="0px"
	 viewBox="0 0 305.6 82.4" style="enable-background:new 0 0 305.6 82.4;" xml:space="preserve">
<style type="text/css">
	.st0{fill:#FFFFFF;}
</style>
<g id="Hopsworks_4_">
	<polygon class="st0" points="109.7,23.7 109.7,45.9 103.6,45.9 103.6,37.2 96.1,37.2 96.1,45.9 90.1,45.9 90.1,23.7 96.1,23.7 
		96.1,31.9 103.6,31.9 103.6,23.7 	"/>
	<path class="st0" d="M123.5,46.1c-1.7,0-3.2-0.3-4.6-1c-1.4-0.6-2.6-1.5-3.5-2.5c-1-1.1-1.7-2.3-2.3-3.6c-0.5-1.4-0.8-2.7-0.8-4.2
		s0.3-2.9,0.8-4.2c0.6-1.4,1.3-2.5,2.4-3.6s2.2-1.9,3.6-2.5s2.9-0.9,4.5-0.9c1.7,0,3.2,0.3,4.6,1c1.4,0.6,2.6,1.5,3.5,2.6
		c1,1.1,1.7,2.3,2.3,3.6c0.5,1.4,0.8,2.7,0.8,4.2s-0.3,2.9-0.8,4.2c-0.6,1.3-1.3,2.5-2.3,3.6c-1,1-2.2,1.9-3.6,2.5
		C126.6,45.8,125.1,46.1,123.5,46.1 M118.4,34.8c0,0.7,0.1,1.5,0.3,2.2s0.5,1.3,0.9,1.9c0.4,0.5,0.9,1,1.6,1.3
		c0.6,0.3,1.4,0.5,2.3,0.5s1.6-0.2,2.3-0.5c0.6-0.3,1.2-0.8,1.6-1.3c0.4-0.6,0.7-1.2,0.9-1.9s0.3-1.4,0.3-2.2c0-0.7-0.1-1.5-0.3-2.2
		s-0.5-1.3-1-1.8c-0.4-0.5-1-1-1.6-1.3s-1.4-0.5-2.2-0.5c-0.9,0-1.6,0.2-2.3,0.5c-0.6,0.3-1.2,0.8-1.6,1.3c-0.4,0.6-0.7,1.2-0.9,1.9
		S118.4,34.1,118.4,34.8"/>
	<path class="st0" d="M137.4,45.9V23.7h9.6c1.1,0,2.1,0.2,3,0.7s1.7,1,2.4,1.7s1.2,1.5,1.5,2.5c0.4,0.9,0.6,1.9,0.6,2.8
		c0,1-0.2,1.9-0.5,2.9c-0.4,0.9-0.8,1.7-1.5,2.5c-0.6,0.7-1.4,1.3-2.3,1.7c-0.9,0.4-1.9,0.6-3,0.6h-3.6v6.8H137.4L137.4,45.9z
		 M143.4,33.8h3.2c0.4,0,0.7-0.2,1-0.5s0.5-1,0.5-1.9s-0.2-1.5-0.6-1.9c-0.4-0.3-0.7-0.5-1.1-0.5h-3.1L143.4,33.8L143.4,33.8z"/>
	<path class="st0" d="M170.2,31c-0.6-0.4-1.3-0.7-1.9-1c-0.6-0.2-1.2-0.5-1.9-0.7s-1.4-0.3-2-0.3c-0.5,0-1,0.1-1.3,0.2
		c-0.3,0.2-0.5,0.4-0.5,0.8c0,0.3,0.1,0.5,0.3,0.7s0.5,0.4,0.8,0.5c0.4,0.2,0.8,0.3,1.3,0.5c0.5,0.1,1.1,0.3,1.7,0.5
		c1,0.3,1.9,0.7,2.8,1c0.8,0.4,1.5,0.8,2.1,1.3s1,1.1,1.3,1.9c0.3,0.7,0.5,1.6,0.5,2.7c0,1.3-0.2,2.5-0.7,3.4s-1.1,1.6-1.9,2.2
		c-0.8,0.5-1.7,0.9-2.7,1.2c-1,0.2-2,0.4-3,0.4c-0.8,0-1.6-0.1-2.5-0.2c-0.9-0.1-1.7-0.3-2.5-0.5s-1.7-0.5-2.4-0.8
		c-0.8-0.3-1.5-0.7-2.2-1.1l2.6-5.3c0.7,0.5,1.5,0.9,2.3,1.2c0.7,0.3,1.4,0.6,2.3,0.8c0.8,0.2,1.7,0.4,2.6,0.4
		c0.7,0,1.1-0.1,1.4-0.3s0.4-0.4,0.4-0.7s-0.1-0.6-0.4-0.8c-0.3-0.2-0.6-0.4-1.1-0.6c-0.5-0.2-1-0.3-1.6-0.5s-1.2-0.4-1.9-0.6
		c-1-0.3-1.8-0.7-2.5-1.1c-0.7-0.4-1.3-0.8-1.7-1.3c-0.5-0.5-0.8-1-1-1.7c-0.2-0.6-0.3-1.3-0.3-2.2c0-1.2,0.2-2.3,0.7-3.2
		c0.4-0.9,1.1-1.7,1.8-2.3c0.8-0.6,1.6-1.1,2.6-1.4s2-0.5,3.1-0.5c0.8,0,1.6,0.1,2.4,0.2c0.8,0.2,1.5,0.4,2.2,0.6s1.4,0.5,2,0.8
		s1.2,0.5,1.7,0.8L170.2,31z"/>
	<path class="st0" d="M216.6,46.1c-1.7,0-3.2-0.3-4.6-1c-1.4-0.6-2.6-1.5-3.5-2.5c-1-1.1-1.7-2.3-2.3-3.6c-0.5-1.4-0.8-2.7-0.8-4.2
		s0.3-2.9,0.8-4.2s1.3-2.5,2.4-3.6c1-1,2.2-1.9,3.6-2.5c1.4-0.6,2.9-0.9,4.5-0.9c1.7,0,3.2,0.3,4.6,1c1.4,0.6,2.5,1.5,3.5,2.6
		s1.7,2.3,2.3,3.6c0.5,1.4,0.8,2.7,0.8,4.2s-0.3,2.9-0.8,4.2s-1.3,2.5-2.3,3.6c-1,1-2.2,1.9-3.6,2.5
		C219.8,45.8,218.3,46.1,216.6,46.1 M211.6,34.8c0,0.7,0.1,1.5,0.3,2.2s0.5,1.3,0.9,1.9s0.9,1,1.6,1.3c0.6,0.3,1.4,0.5,2.3,0.5
		c0.9,0,1.6-0.2,2.3-0.5c0.6-0.3,1.2-0.8,1.6-1.3s0.7-1.2,0.9-1.9s0.3-1.4,0.3-2.2c0-0.7-0.1-1.5-0.3-2.2s-0.5-1.3-1-1.8
		c-0.4-0.5-1-1-1.6-1.3s-1.4-0.5-2.2-0.5c-0.9,0-1.6,0.2-2.3,0.5c-0.6,0.3-1.2,0.8-1.6,1.3c-0.4,0.6-0.7,1.2-0.9,1.9
		C211.7,33.4,211.6,34.1,211.6,34.8"/>
	<path class="st0" d="M230.5,45.9V23.7h10.2c1.1,0,2.1,0.2,3,0.7c0.9,0.4,1.7,1,2.4,1.7s1.2,1.5,1.5,2.5c0.4,0.9,0.6,1.9,0.6,2.8
		c0,1.3-0.3,2.5-0.8,3.6c-0.6,1.1-1.3,2-2.3,2.7l4.7,8.1h-6.9L239,39h-2.3v6.8L230.5,45.9L230.5,45.9z M236.6,33.8h3.8
		c0.4,0,0.7-0.2,1-0.6c0.3-0.4,0.5-1,0.5-1.7c0-0.8-0.2-1.4-0.6-1.8c-0.4-0.4-0.7-0.6-1.1-0.6h-3.7L236.6,33.8z"/>
	<polygon class="st0" points="251.6,45.9 251.6,23.7 257.7,23.7 257.7,32.2 264.4,23.7 271.3,23.7 263.2,33.7 271.9,45.9 
		264.9,45.9 259.4,37.7 257.7,39.5 257.7,45.9 	"/>
	<path class="st0" d="M286.6,31c-0.6-0.4-1.3-0.7-1.9-1c-0.6-0.2-1.2-0.5-1.9-0.7c-0.7-0.2-1.4-0.3-2-0.3c-0.5,0-1,0.1-1.3,0.2
		c-0.3,0.2-0.5,0.4-0.5,0.8c0,0.3,0.1,0.5,0.3,0.7c0.2,0.2,0.5,0.4,0.8,0.5c0.4,0.2,0.8,0.3,1.3,0.5c0.5,0.1,1.1,0.3,1.7,0.5
		c1,0.3,1.9,0.7,2.8,1c0.8,0.4,1.5,0.8,2.1,1.3s1,1.1,1.3,1.9c0.3,0.7,0.5,1.6,0.5,2.7c0,1.3-0.2,2.5-0.7,3.4s-1.1,1.6-1.9,2.2
		c-0.8,0.5-1.7,0.9-2.7,1.2c-1,0.2-2,0.4-3,0.4c-0.8,0-1.6-0.1-2.5-0.2c-0.9-0.1-1.7-0.3-2.5-0.5s-1.7-0.5-2.4-0.8
		c-0.8-0.3-1.5-0.7-2.2-1.1l2.6-5.3c0.7,0.5,1.5,0.9,2.3,1.2c0.7,0.3,1.4,0.6,2.3,0.8c0.8,0.2,1.7,0.4,2.6,0.4
		c0.7,0,1.1-0.1,1.4-0.3s0.4-0.4,0.4-0.7s-0.1-0.6-0.4-0.8s-0.6-0.4-1.1-0.6c-0.5-0.2-1-0.3-1.6-0.5s-1.2-0.4-1.9-0.6
		c-1-0.3-1.8-0.7-2.5-1.1s-1.3-0.8-1.7-1.3c-0.5-0.5-0.8-1-1-1.7c-0.2-0.6-0.3-1.3-0.3-2.2c0-1.2,0.2-2.3,0.7-3.2
		c0.4-0.9,1.1-1.7,1.8-2.3c0.8-0.6,1.6-1.1,2.6-1.4s2-0.5,3.1-0.5c0.8,0,1.6,0.1,2.4,0.2c0.8,0.2,1.5,0.4,2.2,0.6s1.4,0.5,2,0.8
		s1.2,0.5,1.7,0.8L286.6,31z"/>
	<polygon class="st0" points="175.2,24.1 181.4,24.1 183.7,36.2 187,24.1 193.2,24.1 196.5,36.2 198.8,24.1 205,24.1 200.3,45.8 
		193.8,45.8 190.1,32.1 186.4,45.8 179.9,45.8 	"/>
</g>
<path class="st0" d="M30.4,68c-1.4,0.8-2.9,1.2-4.4,1.5c-1.2,0.2-2.5,0.2-3.7,0.2c-1.3,0-2.6-0.2-4-0.4c-0.1,0-0.2,0-0.3-0.1h-0.1
	c0,0,0,0,0-0.1s-0.1-0.2-0.1-0.3c-0.2-1.3-0.4-2.6-0.4-4c0-1.2,0-2.5,0.2-3.7c0.3-1.6,0.8-3,1.5-4.4c0.1-0.2,0.2-0.3,0.4-0.2
	c1.6,0.3,3.3,0.2,5.1,0.1c1.4-0.2,2.8-0.5,4-1.1c0.1,0.3,0.2,0.6,0.2,1c0,0.5,0.2,1,0.5,1.3c0.4,0.3,0.9,0.5,1.3,0.5
	c0.3,0,0.6,0.1,1,0.2c-0.6,1.3-0.9,2.7-1.1,4c-0.2,1.7-0.2,3.4,0.1,5.1C30.6,67.7,30.6,67.9,30.4,68z"/>
<path class="st0" d="M17.9,69.1C17.9,69.1,17.9,69.2,17.9,69.1"/>
<path class="st0" d="M33.2,63.5c0.1-1.5,0.5-3,1.2-4.4c0.2-0.3,0.4-0.5,0.8-0.4c1.3,0.1,2.6,0,3.9-0.1c1.8-0.2,3.7-0.6,5.4-1.3
	c1-0.4,2-0.9,3-1.5c-0.1,2,0.2,4,0.9,5.8c0.2,0.6,0.4,1.2,0.7,1.7c0.1,0.3,0.1,0.5-0.1,0.7c-2.1,2.6-4.5,4.7-7.5,6
	c-2.1,0.9-4.3,1.5-6.7,1.3c-0.3,0-0.5-0.1-0.6-0.4C33.4,68.5,33,66,33.2,63.5z"/>
<path class="st0" d="M53,64.3c-0.9-1.2-1.7-2.6-2.1-4.1c-0.4-1.4-0.7-2.8-0.7-4.5c0.1-2.8,0.9-5.6,2.4-8.2c0.8-1.4,1.8-2.7,2.7-4.1
	c0.7-1,1.5-1.3,2.6-1.3c0.9,0,1.8-0.1,2.7-0.3c0.3-0.1,0.6,0,0.7,0.4c0.8,2.1,1.9,4,3.1,5.9c1.1,1.7,2.2,3.3,3.5,4.8
	c0.2,0.2,0.1,0.3,0,0.4c-0.8,1.5-1.7,3-2.9,4.3c-1.5,1.8-3.3,3.2-5.3,4.5c-1.9,1.2-3.9,2-6,2.7C53.4,64.9,53.2,64.5,53,64.3z"/>
<path class="st0" d="M71.6,52.1c1.6-2.5,3-5.1,3.9-8c0.9-2.6,1.5-7.1,0.9-11.2c-0.6-3.2-1.9-6.1-3.7-8.9c-1.3-1.9-2.7-3.6-4.3-5.2
	l-0.3-0.3c-1.6-1.6-3.3-3-5.2-4.3c-2.7-1.8-5.7-3.1-8.9-3.7c-4.1-0.6-8.6,0-11.2,0.9c-2.9,0.9-5.5,2.3-8,3.9c-0.4,0.2-0.3,0.4,0,0.7
	c3.1,2.6,6.3,4.8,10,6.5c0.7,0.3,1.4,0.6,2,0.9c1,0.4,1.7,0.7,1.3,2.3c-0.4,1.7-0.6,3.4-0.5,5.2c0.1,2.2,0.4,4.4,1.1,6.5
	c0,0.2,0.1,0.3,0.2,0.4c0,0,0,0,0.1,0.1l0.1,0.1c0.1,0.1,0.2,0.1,0.4,0.2c2.1,0.7,4.3,1,6.5,1.1c1.7,0.1,3.5,0,5.2-0.5
	c1.5-0.4,1.8,0.3,2.3,1.3c0.3,0.7,0.5,1.4,0.9,2c1.7,3.6,4,6.9,6.5,10C71.2,52.5,71.4,52.5,71.6,52.1z"/>
<path class="st0" d="M46.8,52.8c-2.1,1.5-4.4,2.3-6.9,2.8c-1.5,0.3-3.1,0.4-4.7,0.4c-1.1,0-2.1-0.2-3.2-0.3c-0.2,0-0.3-0.1-0.4-0.1
	c0,0,0,0-0.1,0l0,0c0,0,0,0,0-0.1c-0.1-0.1-0.1-0.2-0.1-0.4c-0.1-1.1-0.2-2.1-0.3-3.2c0-1.6,0.1-3.1,0.4-4.7
	c0.4-2.5,1.3-4.8,2.8-6.9c0.5-0.7,1.1-1.2,2-1.4c1.2-0.2,2.3-0.8,3.4-1.3c1.9-1,3.8-2.1,5.5-3.5c0.3,1.8,0.7,3.5,1.3,5.2
	c0.1,0.3,0.3,0.5,0.5,0.7l0.1,0.1c0.2,0.2,0.4,0.3,0.7,0.5c1.7,0.6,3.4,0.9,5.2,1.3c-1.4,1.7-2.5,3.6-3.5,5.5
	c-0.6,1.1-1.1,2.2-1.3,3.4C48.1,51.7,47.6,52.3,46.8,52.8z"/>
<path class="st0" d="M17.9,69.2C17.9,69.2,18,69.2,17.9,69.2"/>
<path class="st0" d="M23.6,53.9c1.5-0.1,3-0.5,4.4-1.2c0.3-0.2,0.5-0.4,0.4-0.8c-0.1-1.3,0-2.6,0.1-3.9c0.2-1.8,0.6-3.7,1.3-5.4
	c0.4-1,0.9-2,1.5-3c-2,0.1-4-0.2-5.8-0.9c-0.6-0.2-1.2-0.4-1.7-0.7c-0.3-0.1-0.5-0.1-0.7,0.1c-2.6,2.1-4.7,4.5-6,7.5
	c-0.9,2.1-1.5,4.3-1.3,6.7c0,0.3,0.1,0.5,0.4,0.6C18.6,53.7,21.1,54.1,23.6,53.9z"/>
<path class="st0" d="M22.8,34.1c1.2,0.9,2.6,1.7,4.1,2.1c1.4,0.4,2.8,0.7,4.5,0.7c2.8-0.1,5.6-0.9,8.2-2.4c1.4-0.8,2.7-1.8,4.1-2.7
	c1-0.7,1.3-1.5,1.3-2.6c0-0.9,0.1-1.8,0.3-2.7c0.1-0.3,0-0.6-0.4-0.7c-2.1-0.8-4-1.9-5.9-3.1c-1.7-1.1-3.3-2.2-4.8-3.5
	c-0.2-0.2-0.3-0.1-0.4,0c-1.5,0.8-3,1.7-4.3,2.9c-1.8,1.5-3.2,3.3-4.5,5.3c-1.2,1.9-2,3.9-2.7,6C22.2,33.7,22.6,33.9,22.8,34.1z"/>
<g>
	<path class="st0" d="M186,56.9V58h-5.2v-7.6h5.1v1.1H182v2.2h3.4v1H182V57L186,56.9L186,56.9z"/>
	<path class="st0" d="M188.4,52.6V58h-1.2v-7.6h0.9l4.3,5.5v-5.5h1.2V58h-1L188.4,52.6z"/>
	<path class="st0" d="M201,51.4h-2.5V58h-1.2v-6.5h-2.5v-1.1h6.3v1H201z"/>
	<path class="st0" d="M207.2,56.9V58H202v-7.6h5.1v1.1h-3.9v2.2h3.4v1h-3.4V57L207.2,56.9L207.2,56.9z"/>
	<path class="st0" d="M208.5,58v-7.6h3.3c0.3,0,0.7,0.1,0.9,0.2c0.3,0.1,0.5,0.3,0.7,0.6c0.2,0.2,0.4,0.5,0.5,0.8s0.2,0.6,0.2,0.9
		c0,0.3,0,0.5-0.1,0.7s-0.2,0.5-0.3,0.7s-0.3,0.4-0.5,0.5s-0.4,0.3-0.6,0.3l1.8,2.9H213l-1.6-2.6h-1.8V58H208.5z M209.7,54.3h2.1
		c0.2,0,0.3,0,0.5-0.1c0.1-0.1,0.3-0.2,0.4-0.3c0.1-0.1,0.2-0.3,0.2-0.5c0.1-0.2,0.1-0.4,0.1-0.5s0-0.4-0.1-0.5s-0.2-0.3-0.3-0.4
		c-0.1-0.1-0.2-0.2-0.4-0.3s-0.3-0.1-0.5-0.1h-2V54.3z"/>
	<path class="st0" d="M215.5,58v-7.6h3.2c0.3,0,0.7,0.1,0.9,0.2c0.3,0.1,0.5,0.3,0.7,0.6c0.2,0.2,0.4,0.5,0.5,0.8s0.2,0.6,0.2,0.9
		c0,0.3-0.1,0.6-0.2,0.9s-0.3,0.6-0.5,0.8s-0.4,0.4-0.7,0.6c-0.3,0.1-0.6,0.2-0.9,0.2h-2.1V58H215.5z M216.7,54.3h2
		c0.2,0,0.3,0,0.5-0.1c0.1-0.1,0.3-0.2,0.4-0.3c0.1-0.1,0.2-0.3,0.2-0.4c0.1-0.2,0.1-0.4,0.1-0.6c0-0.2,0-0.4-0.1-0.6
		c-0.1-0.2-0.2-0.3-0.3-0.4s-0.2-0.2-0.4-0.3c-0.1-0.1-0.3-0.1-0.5-0.1h-1.9V54.3z"/>
	<path class="st0" d="M222.2,58v-7.6h3.3c0.3,0,0.7,0.1,0.9,0.2c0.3,0.1,0.5,0.3,0.7,0.6c0.2,0.2,0.4,0.5,0.5,0.8s0.2,0.6,0.2,0.9
		c0,0.3,0,0.5-0.1,0.7s-0.2,0.5-0.3,0.7s-0.3,0.4-0.5,0.5s-0.4,0.3-0.6,0.3l1.8,2.9h-1.4l-1.6-2.6h-1.8V58H222.2z M223.4,54.3h2.1
		c0.2,0,0.3,0,0.5-0.1c0.1-0.1,0.3-0.2,0.4-0.3c0.1-0.1,0.2-0.3,0.2-0.5c0.1-0.2,0.1-0.4,0.1-0.5s0-0.4-0.1-0.5s-0.2-0.3-0.3-0.4
		c-0.1-0.1-0.2-0.2-0.4-0.3s-0.3-0.1-0.5-0.1h-2V54.3z"/>
	<path class="st0" d="M229.3,58v-7.6h1.2V58H229.3z"/>
	<path class="st0" d="M236.7,52.2c-0.1-0.1-0.2-0.2-0.3-0.3s-0.3-0.2-0.5-0.3s-0.4-0.1-0.6-0.2s-0.4-0.1-0.7-0.1
		c-0.5,0-0.9,0.1-1.1,0.3s-0.4,0.4-0.4,0.8c0,0.2,0,0.3,0.1,0.5c0.1,0.1,0.2,0.2,0.3,0.3c0.2,0.1,0.4,0.2,0.6,0.2
		c0.2,0.1,0.5,0.1,0.8,0.2c0.4,0.1,0.7,0.2,1,0.3s0.6,0.3,0.8,0.4s0.4,0.4,0.5,0.6c0.1,0.2,0.2,0.5,0.2,0.9s-0.1,0.7-0.2,1
		s-0.3,0.5-0.6,0.7s-0.5,0.3-0.9,0.4S235,58,234.6,58c-0.6,0-1.1-0.1-1.7-0.3c-0.5-0.2-1-0.4-1.5-0.8l0.5-1c0.1,0.1,0.2,0.2,0.4,0.3
		s0.4,0.2,0.6,0.3c0.2,0.1,0.5,0.2,0.8,0.2c0.3,0.1,0.6,0.1,0.8,0.1c0.5,0,0.8-0.1,1.1-0.2s0.4-0.4,0.4-0.7c0-0.2,0-0.4-0.1-0.5
		s-0.2-0.2-0.4-0.3s-0.4-0.2-0.7-0.3s-0.5-0.2-0.9-0.2c-0.4-0.1-0.7-0.2-1-0.3s-0.5-0.2-0.7-0.4s-0.3-0.3-0.4-0.6
		c-0.1-0.2-0.1-0.5-0.1-0.8c0-0.4,0.1-0.7,0.2-1c0.1-0.3,0.3-0.5,0.6-0.7s0.5-0.3,0.9-0.4c0.3-0.1,0.7-0.1,1.1-0.1
		c0.5,0,1,0.1,1.4,0.2s0.8,0.4,1.1,0.6L236.7,52.2z"/>
	<path class="st0" d="M243.9,56.9V58h-5.2v-7.6h5.1v1.1h-3.9v2.2h3.4v1h-3.4V57L243.9,56.9L243.9,56.9z"/>
	<path class="st0" d="M253,56.9V58h-5.2v-7.6h5.1v1.1H249v2.2h3.4v1H249V57L253,56.9L253,56.9z"/>
	<path class="st0" d="M254.3,58v-7.6h2.7c0.6,0,1.1,0.1,1.6,0.3s0.8,0.5,1.2,0.8c0.3,0.3,0.5,0.7,0.7,1.2s0.2,1,0.2,1.5
		c0,0.6-0.1,1.1-0.3,1.6c-0.2,0.5-0.4,0.9-0.7,1.2c-0.3,0.3-0.7,0.6-1.2,0.8s-1,0.3-1.5,0.3L254.3,58L254.3,58z M259.4,54.2
		c0-0.4-0.1-0.8-0.2-1.1s-0.3-0.6-0.5-0.9c-0.2-0.2-0.5-0.4-0.8-0.6c-0.3-0.1-0.7-0.2-1-0.2h-1.5v5.5h1.5c0.4,0,0.8-0.1,1.1-0.2
		c0.3-0.1,0.6-0.3,0.8-0.6c0.2-0.2,0.4-0.5,0.5-0.9C259.4,54.9,259.4,54.6,259.4,54.2z"/>
	<path class="st0" d="M261.9,58v-7.6h1.2V58H261.9z"/>
	<path class="st0" d="M270.4,51.4h-2.5V58h-1.2v-6.5h-2.5v-1.1h6.3L270.4,51.4L270.4,51.4z"/>
	<path class="st0" d="M271.4,58v-7.6h1.2V58H271.4z"/>
	<path class="st0" d="M277.5,58c-0.5,0-1-0.1-1.5-0.3s-0.8-0.5-1.2-0.9c-0.3-0.4-0.6-0.8-0.7-1.2c-0.2-0.5-0.3-0.9-0.3-1.4
		s0.1-1,0.3-1.5c0.2-0.5,0.4-0.9,0.8-1.2c0.3-0.4,0.7-0.6,1.2-0.9c0.4-0.2,0.9-0.3,1.5-0.3c0.5,0,1,0.1,1.5,0.3s0.8,0.5,1.1,0.9
		c0.3,0.4,0.6,0.8,0.7,1.2c0.2,0.5,0.3,0.9,0.3,1.4s-0.1,1-0.3,1.5c-0.2,0.5-0.4,0.9-0.8,1.2c-0.3,0.4-0.7,0.6-1.2,0.8
		C278.5,57.9,278,58,277.5,58z M275.1,54.2c0,0.4,0.1,0.7,0.2,1s0.3,0.6,0.5,0.9c0.2,0.3,0.5,0.5,0.8,0.6s0.6,0.2,1,0.2
		s0.7-0.1,1-0.2c0.3-0.2,0.5-0.4,0.8-0.6c0.2-0.3,0.4-0.6,0.5-0.9c0.1-0.3,0.2-0.7,0.2-1c0-0.4-0.1-0.7-0.2-1s-0.3-0.6-0.5-0.9
		s-0.5-0.5-0.8-0.6c-0.3-0.2-0.6-0.2-1-0.2s-0.7,0.1-1,0.2c-0.3,0.2-0.6,0.4-0.8,0.6s-0.4,0.6-0.5,0.9
		C275.1,53.5,275.1,53.8,275.1,54.2z"/>
	<path class="st0" d="M283.6,52.6V58h-1.2v-7.6h0.9l4.3,5.5v-5.5h1.2V58h-1L283.6,52.6z"/>
</g>
</svg>
