<?xml version="1.0" encoding="utf-8"?>
<!-- Generator: Adobe Illustrator 24.1.1, SVG Export Plug-In . SVG Version: 6.00 Build 0)  -->
<svg version="1.1" id="Layer_1" xmlns="http://www.w3.org/2000/svg" xmlns:xlink="http://www.w3.org/1999/xlink" x="0px" y="0px"
	 viewBox="0 0 72 73.9" style="enable-background:new 0 0 72 73.9;" xml:space="preserve">
<style type="text/css">
	.st0{fill:#1EB182;}
</style>
<g>
	<path class="st0" d="M20.1,64c-1.4,0.8-2.9,1.2-4.4,1.5c-1.2,0.2-2.5,0.2-3.7,0.2c-1.3,0-2.6-0.2-4-0.4c-0.1,0-0.2,0-0.3-0.1
		c0,0-0.1,0-0.1,0c0,0,0,0,0-0.1c0-0.1-0.1-0.2-0.1-0.3c-0.2-1.3-0.4-2.6-0.4-4c0-1.2,0-2.5,0.2-3.7c0.3-1.6,0.8-3,1.5-4.4
		c0.1-0.2,0.2-0.3,0.4-0.2c1.6,0.3,3.3,0.2,5.1,0.1c1.4-0.2,2.8-0.5,4-1.1c0.1,0.3,0.2,0.6,0.2,1c0,0.5,0.2,1,0.5,1.3
		c0.4,0.3,0.9,0.5,1.3,0.5c0.3,0,0.6,0.1,1,0.2c-0.6,1.3-0.9,2.7-1.1,4c-0.2,1.7-0.2,3.4,0.1,5.1C20.4,63.8,20.3,63.9,20.1,64z"/>
	<path class="st0" d="M7.6,65.2C7.7,65.2,7.7,65.2,7.6,65.2"/>
	<path class="st0" d="M23,59.6c0.1-1.5,0.5-3,1.2-4.4c0.2-0.3,0.4-0.5,0.8-0.4c1.3,0.1,2.6,0,3.9-0.1c1.8-0.2,3.7-0.6,5.4-1.3
		c1-0.4,2-0.9,3-1.5c-0.1,2,0.2,4,0.9,5.8c0.2,0.6,0.4,1.2,0.7,1.7c0.1,0.3,0.1,0.5-0.1,0.7c-2.1,2.6-4.5,4.7-7.5,6
		c-2.1,0.9-4.3,1.5-6.7,1.3c-0.3,0-0.5-0.1-0.6-0.4C23.2,64.6,22.8,62.1,23,59.6z"/>
	<path class="st0" d="M42.8,60.3c-0.9-1.2-1.7-2.6-2.1-4.1c-0.4-1.4-0.7-2.8-0.7-4.5c0.1-2.8,0.9-5.6,2.4-8.2
		c0.8-1.4,1.8-2.7,2.7-4.1c0.7-1,1.5-1.3,2.6-1.3c0.9,0,1.8-0.1,2.7-0.3c0.3-0.1,0.6,0,0.7,0.4c0.8,2.1,1.9,4,3.1,5.9
		c1.1,1.7,2.2,3.3,3.5,4.8c0.2,0.2,0.1,0.3,0,0.4c-0.8,1.5-1.7,3-2.9,4.3c-1.5,1.8-3.3,3.2-5.3,4.5c-1.9,1.2-3.9,2-6,2.7
		C43.2,61,43,60.6,42.8,60.3z"/>
	<path class="st0" d="M61.4,48.2c1.6-2.5,3-5.1,3.9-8c0.9-2.6,1.5-7.1,0.9-11.2c-0.6-3.2-1.9-6.1-3.7-8.9c-1.3-1.9-2.7-3.6-4.3-5.2
		L58,14.7c-1.6-1.6-3.3-3-5.2-4.3c-2.7-1.8-5.7-3.1-8.9-3.7c-4.1-0.6-8.6,0-11.2,0.9c-2.9,0.9-5.5,2.3-8,3.9c-0.4,0.2-0.3,0.4,0,0.7
		c3.1,2.6,6.3,4.8,10,6.5c0.7,0.3,1.4,0.6,2,0.9c1,0.4,1.7,0.7,1.3,2.3c-0.4,1.7-0.6,3.4-0.5,5.2c0.1,2.2,0.4,4.4,1.1,6.5
		c0,0.2,0.1,0.3,0.2,0.4c0,0,0,0,0.1,0.1C39,34,39,34,39,34c0.1,0.1,0.2,0.1,0.4,0.2c2.1,0.7,4.3,1,6.5,1.1c1.7,0.1,3.5,0,5.2-0.5
		c1.5-0.4,1.8,0.3,2.3,1.3c0.3,0.7,0.5,1.4,0.9,2c1.7,3.6,4,6.9,6.5,10C61,48.5,61.2,48.5,61.4,48.2z"/>
	<path class="st0" d="M36.6,48.9c-2.1,1.5-4.4,2.3-6.9,2.8c-1.5,0.3-3.1,0.4-4.7,0.4c-1.1,0-2.1-0.2-3.2-0.3c-0.2,0-0.3-0.1-0.4-0.1
		c0,0,0,0-0.1,0l0,0c0,0,0,0,0-0.1c-0.1-0.1-0.1-0.2-0.1-0.4C21.1,50,21,49,20.9,47.9c0-1.6,0.1-3.1,0.4-4.7
		c0.4-2.5,1.3-4.8,2.8-6.9c0.5-0.7,1.1-1.2,2-1.4c1.2-0.2,2.3-0.8,3.4-1.3c1.9-1,3.8-2.1,5.5-3.5c0.3,1.8,0.7,3.5,1.3,5.2
		c0.1,0.3,0.3,0.5,0.5,0.7l0.1,0.1c0.2,0.2,0.4,0.3,0.7,0.5c1.7,0.6,3.4,0.9,5.2,1.3c-1.4,1.7-2.5,3.6-3.5,5.5
		c-0.6,1.1-1.1,2.2-1.3,3.4C37.8,47.8,37.3,48.4,36.6,48.9z"/>
	<path class="st0" d="M7.7,65.2C7.7,65.3,7.7,65.3,7.7,65.2"/>
	<path class="st0" d="M13.4,50c1.5-0.1,3-0.5,4.4-1.2c0.3-0.2,0.5-0.4,0.4-0.8c-0.1-1.3,0-2.6,0.1-3.9c0.2-1.8,0.6-3.7,1.3-5.4
		c0.4-1,0.9-2,1.5-3c-2,0.1-4-0.2-5.8-0.9c-0.6-0.2-1.2-0.4-1.7-0.7c-0.3-0.1-0.5-0.1-0.7,0.1c-2.6,2.1-4.7,4.5-6,7.5
		c-0.9,2.1-1.5,4.3-1.3,6.7c0,0.3,0.1,0.5,0.4,0.6C8.4,49.8,10.8,50.2,13.4,50z"/>
	<path class="st0" d="M12.6,30.1c1.2,0.9,2.6,1.7,4.1,2.1c1.4,0.4,2.8,0.7,4.5,0.7c2.8-0.1,5.6-0.9,8.2-2.4c1.4-0.8,2.7-1.8,4.1-2.7
		c1-0.7,1.3-1.5,1.3-2.6c0-0.9,0.1-1.8,0.3-2.7c0.1-0.3,0-0.6-0.4-0.7c-2.1-0.8-4-1.9-5.9-3.1c-1.7-1.1-3.3-2.2-4.8-3.5
		c-0.2-0.2-0.3-0.1-0.4,0c-1.5,0.8-3,1.7-4.3,2.9c-1.8,1.5-3.2,3.3-4.5,5.3c-1.2,1.9-2,3.9-2.7,6C11.9,29.8,12.4,29.9,12.6,30.1z"/>
</g>
</svg>
