<?xml version="1.0" encoding="utf-8"?>
<!-- Generator: Adobe Illustrator 24.1.1, SVG Export Plug-In . SVG Version: 6.00 Build 0)  -->
<svg version="1.1" id="Layer_1" xmlns="http://www.w3.org/2000/svg" xmlns:xlink="http://www.w3.org/1999/xlink" x="0px" y="0px"
	 viewBox="0 0 305.6 82.4" style="enable-background:new 0 0 305.6 82.4;" xml:space="preserve">
<style type="text/css">
	.st0{fill:#FFFFFF;}
</style>
<g id="Hopsworks_4_">
	<polygon class="st0" points="109.7,23.7 109.7,45.9 103.6,45.9 103.6,37.2 96.1,37.2 96.1,45.9 90.1,45.9 90.1,23.7 96.1,23.7 
		96.1,31.9 103.6,31.9 103.6,23.7 	"/>
	<path class="st0" d="M123.5,46.1c-1.7,0-3.2-0.3-4.6-1c-1.4-0.6-2.6-1.5-3.5-2.5c-1-1.1-1.7-2.3-2.3-3.6c-0.5-1.4-0.8-2.7-0.8-4.2
		c0-1.5,0.3-2.9,0.8-4.2c0.6-1.4,1.3-2.5,2.4-3.6s2.2-1.9,3.6-2.5c1.4-0.6,2.9-0.9,4.5-0.9c1.7,0,3.2,0.3,4.6,1
		c1.4,0.6,2.6,1.5,3.5,2.6c1,1.1,1.7,2.3,2.3,3.6c0.5,1.4,0.8,2.7,0.8,4.2c0,1.5-0.3,2.9-0.8,4.2c-0.6,1.3-1.3,2.5-2.3,3.6
		c-1,1-2.2,1.9-3.6,2.5C126.6,45.8,125.1,46.1,123.5,46.1 M118.4,34.8c0,0.7,0.1,1.5,0.3,2.2s0.5,1.3,0.9,1.9c0.4,0.5,0.9,1,1.6,1.3
		c0.6,0.3,1.4,0.5,2.3,0.5c0.9,0,1.6-0.2,2.3-0.5c0.6-0.3,1.2-0.8,1.6-1.3c0.4-0.6,0.7-1.2,0.9-1.9s0.3-1.4,0.3-2.2
		c0-0.7-0.1-1.5-0.3-2.2c-0.2-0.7-0.5-1.3-1-1.8c-0.4-0.5-1-1-1.6-1.3c-0.6-0.3-1.4-0.5-2.2-0.5c-0.9,0-1.6,0.2-2.3,0.5
		c-0.6,0.3-1.2,0.8-1.6,1.3c-0.4,0.6-0.7,1.2-0.9,1.9C118.5,33.4,118.4,34.1,118.4,34.8"/>
	<path class="st0" d="M137.4,45.9l0-22.2l9.6,0c1.1,0,2.1,0.2,3,0.7s1.7,1,2.4,1.7c0.7,0.7,1.2,1.5,1.5,2.5c0.4,0.9,0.6,1.9,0.6,2.8
		c0,1-0.2,1.9-0.5,2.9c-0.4,0.9-0.8,1.7-1.5,2.5c-0.6,0.7-1.4,1.3-2.3,1.7c-0.9,0.4-1.9,0.6-3,0.6l-3.6,0l0,6.8L137.4,45.9
		L137.4,45.9z M143.4,33.8l3.2,0c0.4,0,0.7-0.2,1-0.5s0.5-1,0.5-1.9c0-0.9-0.2-1.5-0.6-1.9c-0.4-0.3-0.7-0.5-1.1-0.5l-3.1,0
		L143.4,33.8L143.4,33.8z"/>
	<path class="st0" d="M170.2,31c-0.6-0.4-1.3-0.7-1.9-1c-0.6-0.2-1.2-0.5-1.9-0.7c-0.7-0.2-1.4-0.3-2-0.3c-0.5,0-1,0.1-1.3,0.2
		c-0.3,0.2-0.5,0.4-0.5,0.8c0,0.3,0.1,0.5,0.3,0.7c0.2,0.2,0.5,0.4,0.8,0.5c0.4,0.2,0.8,0.3,1.3,0.5c0.5,0.1,1.1,0.3,1.7,0.5
		c1,0.3,1.9,0.7,2.8,1c0.8,0.4,1.5,0.8,2.1,1.3c0.6,0.5,1,1.1,1.3,1.9c0.3,0.7,0.5,1.6,0.5,2.7c0,1.3-0.2,2.5-0.7,3.4
		c-0.5,0.9-1.1,1.6-1.9,2.2c-0.8,0.5-1.7,0.9-2.7,1.2c-1,0.2-2,0.4-3,0.4c-0.8,0-1.6-0.1-2.5-0.2c-0.9-0.1-1.7-0.3-2.5-0.5
		c-0.8-0.2-1.7-0.5-2.4-0.8c-0.8-0.3-1.5-0.7-2.2-1.1l2.6-5.3c0.7,0.5,1.5,0.9,2.3,1.2c0.7,0.3,1.4,0.6,2.3,0.8
		c0.8,0.2,1.7,0.4,2.6,0.4c0.7,0,1.1-0.1,1.4-0.3s0.4-0.4,0.4-0.7c0-0.3-0.1-0.6-0.4-0.8c-0.3-0.2-0.6-0.4-1.1-0.6
		c-0.5-0.2-1-0.3-1.6-0.5c-0.6-0.2-1.2-0.4-1.9-0.6c-1-0.3-1.8-0.7-2.5-1.1c-0.7-0.4-1.3-0.8-1.7-1.3c-0.5-0.5-0.8-1-1-1.7
		c-0.2-0.6-0.3-1.3-0.3-2.2c0-1.2,0.2-2.3,0.7-3.2c0.4-0.9,1.1-1.7,1.8-2.3c0.8-0.6,1.6-1.1,2.6-1.4c1-0.3,2-0.5,3.1-0.5
		c0.8,0,1.6,0.1,2.4,0.2c0.8,0.2,1.5,0.4,2.2,0.6c0.7,0.2,1.4,0.5,2,0.8s1.2,0.5,1.7,0.8L170.2,31z"/>
	<path class="st0" d="M216.6,46.1c-1.7,0-3.2-0.3-4.6-1c-1.4-0.6-2.6-1.5-3.5-2.5c-1-1.1-1.7-2.3-2.3-3.6c-0.5-1.4-0.8-2.7-0.8-4.2
		c0-1.5,0.3-2.9,0.8-4.2s1.3-2.5,2.4-3.6c1-1,2.2-1.9,3.6-2.5c1.4-0.6,2.9-0.9,4.5-0.9c1.7,0,3.2,0.3,4.6,1c1.4,0.6,2.5,1.5,3.5,2.6
		s1.7,2.3,2.3,3.6c0.5,1.4,0.8,2.7,0.8,4.2c0,1.5-0.3,2.9-0.8,4.2s-1.3,2.5-2.3,3.6c-1,1-2.2,1.9-3.6,2.5
		C219.8,45.8,218.3,46.1,216.6,46.1 M211.6,34.8c0,0.7,0.1,1.5,0.3,2.2c0.2,0.7,0.5,1.3,0.9,1.9s0.9,1,1.6,1.3
		c0.6,0.3,1.4,0.5,2.3,0.5c0.9,0,1.6-0.2,2.3-0.5c0.6-0.3,1.2-0.8,1.6-1.3s0.7-1.2,0.9-1.9c0.2-0.7,0.3-1.4,0.3-2.2
		c0-0.7-0.1-1.5-0.3-2.2c-0.2-0.7-0.5-1.3-1-1.8c-0.4-0.5-1-1-1.6-1.3s-1.4-0.5-2.2-0.5c-0.9,0-1.6,0.2-2.3,0.5
		c-0.6,0.3-1.2,0.8-1.6,1.3c-0.4,0.6-0.7,1.2-0.9,1.9C211.7,33.4,211.6,34.1,211.6,34.8"/>
	<path class="st0" d="M230.5,45.9l0-22.2l10.2,0c1.1,0,2.1,0.2,3,0.7c0.9,0.4,1.7,1,2.4,1.7s1.2,1.5,1.5,2.5
		c0.4,0.9,0.6,1.9,0.6,2.8c0,1.3-0.3,2.5-0.8,3.6c-0.6,1.1-1.3,2-2.3,2.7l4.7,8.1l-6.9,0l-3.9-6.8l-2.3,0l0,6.8L230.5,45.9
		L230.5,45.9z M236.6,33.8l3.8,0c0.4,0,0.7-0.2,1-0.6c0.3-0.4,0.5-1,0.5-1.7c0-0.8-0.2-1.4-0.6-1.8c-0.4-0.4-0.7-0.6-1.1-0.6l-3.7,0
		L236.6,33.8z"/>
	<polygon class="st0" points="251.6,45.9 251.6,23.7 257.7,23.7 257.7,32.2 264.4,23.7 271.3,23.7 263.2,33.7 271.9,45.9 
		264.9,45.9 259.4,37.7 257.7,39.5 257.7,45.9 	"/>
	<path class="st0" d="M286.6,31c-0.6-0.4-1.3-0.7-1.9-1c-0.6-0.2-1.2-0.5-1.9-0.7c-0.7-0.2-1.4-0.3-2-0.3c-0.5,0-1,0.1-1.3,0.2
		c-0.3,0.2-0.5,0.4-0.5,0.8c0,0.3,0.1,0.5,0.3,0.7c0.2,0.2,0.5,0.4,0.8,0.5c0.4,0.2,0.8,0.3,1.3,0.5c0.5,0.1,1.1,0.3,1.7,0.5
		c1,0.3,1.9,0.7,2.8,1c0.8,0.4,1.5,0.8,2.1,1.3s1,1.1,1.3,1.9c0.3,0.7,0.5,1.6,0.5,2.7c0,1.3-0.2,2.5-0.7,3.4
		c-0.5,0.9-1.1,1.6-1.9,2.2c-0.8,0.5-1.7,0.9-2.7,1.2c-1,0.2-2,0.4-3,0.4c-0.8,0-1.6-0.1-2.5-0.2c-0.9-0.1-1.7-0.3-2.5-0.5
		c-0.8-0.2-1.7-0.5-2.4-0.8c-0.8-0.3-1.5-0.7-2.2-1.1l2.6-5.3c0.7,0.5,1.5,0.9,2.3,1.2c0.7,0.3,1.4,0.6,2.3,0.8
		c0.8,0.2,1.7,0.4,2.6,0.4c0.7,0,1.1-0.1,1.4-0.3s0.4-0.4,0.4-0.7c0-0.3-0.1-0.6-0.4-0.8c-0.3-0.2-0.6-0.4-1.1-0.6
		c-0.5-0.2-1-0.3-1.6-0.5c-0.6-0.2-1.2-0.4-1.9-0.6c-1-0.3-1.8-0.7-2.5-1.1s-1.3-0.8-1.7-1.3c-0.5-0.5-0.8-1-1-1.7
		c-0.2-0.6-0.3-1.3-0.3-2.2c0-1.2,0.2-2.3,0.7-3.2c0.4-0.9,1.1-1.7,1.8-2.3c0.8-0.6,1.6-1.1,2.6-1.4c1-0.3,2-0.5,3.1-0.5
		c0.8,0,1.6,0.1,2.4,0.2c0.8,0.2,1.5,0.4,2.2,0.6c0.7,0.2,1.4,0.5,2,0.8s1.2,0.5,1.7,0.8L286.6,31z"/>
	<polygon class="st0" points="175.2,24.1 181.4,24.1 183.7,36.2 187,24.1 193.2,24.1 196.5,36.2 198.8,24.1 205,24.1 200.3,45.8 
		193.8,45.8 190.1,32.1 186.4,45.8 179.9,45.8 	"/>
</g>
<g id="By_Logical_Clocks_4_">
	<path class="st0" d="M190.8,56c0,0.3-0.1,0.6-0.2,0.8c-0.1,0.2-0.3,0.4-0.5,0.6c-0.2,0.2-0.5,0.3-0.7,0.4c-0.3,0.1-0.6,0.1-0.9,0.1
		l-3.6,0l0-7.6l3.9,0c0.3,0,0.5,0.1,0.7,0.2c0.2,0.1,0.4,0.3,0.5,0.4c0.2,0.2,0.3,0.4,0.4,0.6c0.1,0.2,0.1,0.5,0.1,0.7
		c0,0.4-0.1,0.7-0.3,1c-0.2,0.3-0.5,0.6-0.8,0.7c0.4,0.1,0.8,0.4,1,0.7C190.7,55.1,190.8,55.5,190.8,56 M186,51.4l0,2.2l2.2,0
		c0.2,0,0.3,0,0.4-0.1c0.1-0.1,0.2-0.1,0.3-0.2s0.2-0.2,0.2-0.4c0.1-0.1,0.1-0.3,0.1-0.5c0-0.3-0.1-0.6-0.3-0.8
		c-0.2-0.2-0.4-0.3-0.7-0.3L186,51.4L186,51.4z M189.6,55.8c0-0.2,0-0.3-0.1-0.5c-0.1-0.1-0.1-0.3-0.2-0.4c-0.1-0.1-0.2-0.2-0.3-0.3
		c-0.1-0.1-0.3-0.1-0.4-0.1l-2.5,0l0,2.3l2.4,0c0.2,0,0.3,0,0.4-0.1c0.1-0.1,0.3-0.1,0.4-0.2c0.1-0.1,0.2-0.2,0.2-0.4
		C189.5,56.1,189.6,55.9,189.6,55.8"/>
	<polygon class="st0" points="192.3,50.4 194.4,54.2 196.5,50.4 197.8,50.4 195,55.3 195,58 193.8,58 193.8,55.2 191,50.4 	"/>
	<polygon class="st0" points="201.1,58 201.1,50.4 202.3,50.4 202.3,56.9 206.4,56.9 206.4,58 	"/>
	<path class="st0" d="M210,58c-0.5,0-1-0.1-1.5-0.3c-0.4-0.2-0.8-0.5-1.2-0.9c-0.3-0.4-0.6-0.8-0.7-1.2c-0.2-0.5-0.3-0.9-0.3-1.4
		c0-0.5,0.1-1,0.3-1.5c0.2-0.5,0.4-0.9,0.8-1.2c0.3-0.4,0.7-0.6,1.2-0.9c0.4-0.2,0.9-0.3,1.5-0.3c0.5,0,1,0.1,1.5,0.3
		c0.4,0.2,0.8,0.5,1.1,0.9c0.3,0.4,0.6,0.8,0.7,1.2c0.2,0.5,0.3,0.9,0.3,1.4c0,0.5-0.1,1-0.3,1.5c-0.2,0.5-0.4,0.9-0.8,1.2
		c-0.3,0.4-0.7,0.6-1.2,0.8C211,57.9,210.6,58,210,58 M207.6,54.2c0,0.4,0.1,0.7,0.2,1c0.1,0.3,0.3,0.6,0.5,0.9
		c0.2,0.3,0.5,0.5,0.8,0.6c0.3,0.2,0.6,0.2,1,0.2c0.4,0,0.7-0.1,1-0.2c0.3-0.2,0.5-0.4,0.8-0.6c0.2-0.3,0.4-0.6,0.5-0.9
		c0.1-0.3,0.2-0.7,0.2-1c0-0.4-0.1-0.7-0.2-1c-0.1-0.3-0.3-0.6-0.5-0.9c-0.2-0.3-0.5-0.5-0.8-0.6c-0.3-0.2-0.6-0.2-1-0.2
		c-0.4,0-0.7,0.1-1,0.2c-0.3,0.2-0.6,0.4-0.8,0.6c-0.2,0.3-0.4,0.6-0.5,0.9C207.7,53.5,207.6,53.8,207.6,54.2"/>
	<path class="st0" d="M220.3,57c-0.6,0.7-1.4,1-2.2,1c-0.5,0-1-0.1-1.4-0.3c-0.4-0.2-0.8-0.5-1.1-0.9s-0.6-0.8-0.8-1.2
		c-0.2-0.5-0.3-1-0.3-1.5s0.1-1,0.3-1.5s0.4-0.9,0.8-1.2c0.3-0.4,0.7-0.6,1.1-0.8c0.4-0.2,0.9-0.3,1.4-0.3c0.7,0,1.3,0.2,1.8,0.5
		c0.5,0.3,0.9,0.7,1.1,1.2l-0.9,0.7c-0.2-0.4-0.5-0.7-0.9-0.9s-0.8-0.3-1.2-0.3c-0.4,0-0.7,0.1-1,0.2s-0.5,0.4-0.8,0.6
		c-0.2,0.3-0.4,0.5-0.5,0.9c-0.1,0.3-0.2,0.7-0.2,1.1c0,0.4,0.1,0.7,0.2,1.1c0.1,0.3,0.3,0.6,0.5,0.9c0.2,0.2,0.5,0.4,0.8,0.6
		c0.3,0.1,0.6,0.2,1,0.2c0.4,0,0.8-0.1,1.1-0.3c0.4-0.2,0.7-0.5,1-0.8V55l-1.6,0v-0.9l2.6,0l0,3.9l-1,0L220.3,57L220.3,57z"/>
	<rect x="222.7" y="50.4" class="st0" width="1.2" height="7.6"/>
	<path class="st0" d="M225.1,54.1c0-0.5,0.1-0.9,0.2-1.4c0.2-0.5,0.4-0.9,0.7-1.2c0.3-0.4,0.7-0.7,1.2-0.9c0.5-0.2,1-0.3,1.6-0.3
		c0.7,0,1.3,0.2,1.8,0.5c0.5,0.3,0.9,0.7,1.1,1.2l-0.9,0.6c-0.1-0.2-0.2-0.4-0.4-0.6c-0.2-0.2-0.3-0.3-0.5-0.4
		c-0.2-0.1-0.4-0.2-0.6-0.2c-0.2,0-0.4-0.1-0.6-0.1c-0.4,0-0.8,0.1-1.1,0.2c-0.3,0.2-0.6,0.4-0.8,0.6c-0.2,0.3-0.4,0.6-0.5,0.9
		s-0.2,0.7-0.2,1c0,0.4,0.1,0.7,0.2,1.1c0.1,0.3,0.3,0.6,0.5,0.9c0.2,0.3,0.5,0.5,0.8,0.6c0.3,0.2,0.6,0.2,1,0.2
		c0.2,0,0.4,0,0.6-0.1c0.2,0,0.4-0.1,0.6-0.2c0.2-0.1,0.4-0.2,0.5-0.4c0.2-0.2,0.3-0.3,0.4-0.6l1,0.6c-0.1,0.3-0.3,0.5-0.5,0.8
		c-0.2,0.2-0.5,0.4-0.8,0.6c-0.3,0.2-0.6,0.3-0.9,0.3c-0.3,0.1-0.6,0.1-0.9,0.1c-0.5,0-1-0.1-1.5-0.3c-0.4-0.2-0.8-0.5-1.1-0.9
		c-0.3-0.4-0.6-0.8-0.8-1.3C225.2,55.1,225.1,54.6,225.1,54.1"/>
	<path class="st0" d="M235.1,50.4l1.1,0l3,7.6l-1.3,0l-0.8-2.1l-2.9,0l-0.8,2.1l-1.3,0L235.1,50.4z M236.8,55l-1.2-3.3l-1.3,3.3
		L236.8,55z"/>
	<polygon class="st0" points="240.1,58 240.1,50.4 241.3,50.4 241.3,56.9 245.4,56.9 245.4,58 	"/>
	<path class="st0" d="M248.2,54.1c0-0.5,0.1-0.9,0.2-1.4c0.2-0.5,0.4-0.9,0.7-1.2c0.3-0.4,0.7-0.7,1.2-0.9c0.5-0.2,1-0.3,1.6-0.3
		c0.7,0,1.3,0.2,1.8,0.5c0.5,0.3,0.9,0.7,1.1,1.2l-0.9,0.6c-0.1-0.2-0.2-0.4-0.4-0.6c-0.2-0.2-0.3-0.3-0.5-0.4s-0.4-0.2-0.6-0.2
		c-0.2,0-0.4-0.1-0.6-0.1c-0.4,0-0.8,0.1-1.1,0.2c-0.3,0.2-0.6,0.4-0.8,0.6c-0.2,0.3-0.4,0.6-0.5,0.9c-0.1,0.3-0.2,0.7-0.2,1
		c0,0.4,0.1,0.7,0.2,1.1c0.1,0.3,0.3,0.6,0.5,0.9c0.2,0.3,0.5,0.5,0.8,0.6c0.3,0.2,0.6,0.2,1,0.2c0.2,0,0.4,0,0.6-0.1
		c0.2,0,0.4-0.1,0.6-0.2c0.2-0.1,0.4-0.2,0.5-0.4c0.2-0.2,0.3-0.3,0.4-0.6l1,0.6c-0.1,0.3-0.3,0.5-0.5,0.8c-0.2,0.2-0.5,0.4-0.8,0.6
		c-0.3,0.2-0.6,0.3-0.9,0.3c-0.3,0.1-0.6,0.1-0.9,0.1c-0.5,0-1-0.1-1.5-0.3s-0.8-0.5-1.1-0.9c-0.3-0.4-0.6-0.8-0.8-1.3
		C248.3,55.1,248.2,54.6,248.2,54.1"/>
	<polygon class="st0" points="256,58 256,50.4 257.3,50.4 257.3,56.9 261.3,56.9 261.3,58 	"/>
	<path class="st0" d="M265,58c-0.5,0-1-0.1-1.5-0.3c-0.4-0.2-0.8-0.5-1.2-0.9c-0.3-0.4-0.6-0.8-0.7-1.2c-0.2-0.5-0.3-0.9-0.3-1.4
		c0-0.5,0.1-1,0.3-1.5c0.2-0.5,0.4-0.9,0.8-1.2s0.7-0.6,1.2-0.9c0.4-0.2,0.9-0.3,1.5-0.3c0.5,0,1,0.1,1.5,0.3
		c0.4,0.2,0.8,0.5,1.1,0.9c0.3,0.4,0.6,0.8,0.7,1.2c0.2,0.5,0.3,0.9,0.3,1.4c0,0.5-0.1,1-0.3,1.5c-0.2,0.5-0.4,0.9-0.8,1.2
		s-0.7,0.6-1.2,0.8C266,57.9,265.5,58,265,58 M262.6,54.2c0,0.4,0.1,0.7,0.2,1c0.1,0.3,0.3,0.6,0.5,0.9c0.2,0.3,0.5,0.5,0.8,0.6
		c0.3,0.2,0.6,0.2,1,0.2c0.4,0,0.7-0.1,1-0.2c0.3-0.2,0.5-0.4,0.8-0.6c0.2-0.3,0.4-0.6,0.5-0.9c0.1-0.3,0.2-0.7,0.2-1
		c0-0.4-0.1-0.7-0.2-1c-0.1-0.3-0.3-0.6-0.5-0.9c-0.2-0.3-0.5-0.5-0.8-0.6c-0.3-0.2-0.6-0.2-1-0.2c-0.4,0-0.7,0.1-1,0.2
		c-0.3,0.2-0.6,0.4-0.8,0.6c-0.2,0.3-0.4,0.6-0.5,0.9C262.6,53.5,262.6,53.8,262.6,54.2"/>
	<path class="st0" d="M269.4,54.1c0-0.5,0.1-0.9,0.2-1.4c0.2-0.5,0.4-0.9,0.7-1.2c0.3-0.4,0.7-0.7,1.2-0.9c0.5-0.2,1-0.3,1.6-0.3
		c0.7,0,1.3,0.2,1.8,0.5c0.5,0.3,0.9,0.7,1.1,1.2l-0.9,0.6c-0.1-0.2-0.2-0.4-0.4-0.6c-0.2-0.2-0.3-0.3-0.5-0.4
		c-0.2-0.1-0.4-0.2-0.6-0.2c-0.2,0-0.4-0.1-0.6-0.1c-0.4,0-0.8,0.1-1.1,0.2c-0.3,0.2-0.6,0.4-0.8,0.6c-0.2,0.3-0.4,0.6-0.5,0.9
		c-0.1,0.3-0.2,0.7-0.2,1c0,0.4,0.1,0.7,0.2,1.1c0.1,0.3,0.3,0.6,0.5,0.9c0.2,0.3,0.5,0.5,0.8,0.6s0.6,0.2,1,0.2
		c0.2,0,0.4,0,0.6-0.1c0.2,0,0.4-0.1,0.6-0.2c0.2-0.1,0.4-0.2,0.5-0.4c0.2-0.2,0.3-0.3,0.4-0.6l1,0.6c-0.1,0.3-0.3,0.5-0.5,0.8
		c-0.2,0.2-0.5,0.4-0.8,0.6c-0.3,0.2-0.6,0.3-0.9,0.3c-0.3,0.1-0.6,0.1-0.9,0.1c-0.5,0-1-0.1-1.5-0.3c-0.4-0.2-0.8-0.5-1.1-0.9
		c-0.3-0.4-0.6-0.8-0.8-1.3C269.5,55.1,269.4,54.6,269.4,54.1"/>
	<polygon class="st0" points="277.3,58 277.3,50.4 278.5,50.4 278.5,54.3 282,50.4 283.4,50.4 280.4,53.7 283.5,58 282.2,58 
		279.6,54.5 278.5,55.7 278.5,58 	"/>
	<path class="st0" d="M288.9,52.1c-0.1-0.1-0.2-0.2-0.3-0.3c-0.1-0.1-0.3-0.2-0.5-0.3c-0.2-0.1-0.4-0.1-0.6-0.2
		c-0.2-0.1-0.4-0.1-0.7-0.1c-0.5,0-0.9,0.1-1.1,0.3c-0.2,0.2-0.4,0.4-0.4,0.8c0,0.2,0,0.3,0.1,0.5c0.1,0.1,0.2,0.2,0.4,0.3
		c0.2,0.1,0.4,0.2,0.6,0.2c0.2,0.1,0.5,0.1,0.8,0.2c0.4,0.1,0.7,0.2,1,0.3c0.3,0.1,0.6,0.3,0.8,0.4c0.2,0.2,0.4,0.4,0.5,0.6
		c0.1,0.2,0.2,0.5,0.2,0.9c0,0.4-0.1,0.7-0.2,1c-0.1,0.3-0.3,0.5-0.6,0.7c-0.3,0.2-0.5,0.3-0.9,0.4s-0.7,0.1-1.1,0.1
		c-0.6,0-1.1-0.1-1.7-0.3c-0.5-0.2-1-0.4-1.5-0.8l0.5-1c0.1,0.1,0.2,0.2,0.4,0.3c0.2,0.1,0.4,0.2,0.6,0.3c0.2,0.1,0.5,0.2,0.8,0.2
		c0.3,0.1,0.6,0.1,0.8,0.1c0.5,0,0.8-0.1,1.1-0.2c0.3-0.2,0.4-0.4,0.4-0.7c0-0.2,0-0.4-0.1-0.5c-0.1-0.1-0.2-0.2-0.4-0.3
		c-0.2-0.1-0.4-0.2-0.7-0.3c-0.3-0.1-0.5-0.2-0.9-0.2c-0.4-0.1-0.7-0.2-1-0.3c-0.3-0.1-0.5-0.2-0.7-0.4c-0.2-0.2-0.3-0.3-0.4-0.6
		c-0.1-0.2-0.1-0.5-0.1-0.8c0-0.4,0.1-0.7,0.2-1c0.1-0.3,0.3-0.5,0.6-0.7c0.2-0.2,0.5-0.3,0.9-0.4c0.3-0.1,0.7-0.1,1.1-0.1
		c0.5,0,1,0.1,1.4,0.2c0.4,0.2,0.8,0.4,1.1,0.6L288.9,52.1z"/>
</g>
<path class="st0" d="M30.4,68c-1.4,0.8-2.9,1.2-4.4,1.5c-1.2,0.2-2.5,0.2-3.7,0.2c-1.3,0-2.6-0.2-4-0.4c-0.1,0-0.2,0-0.3-0.1
	c0,0-0.1,0-0.1,0c0,0,0,0,0-0.1c0-0.1-0.1-0.2-0.1-0.3c-0.2-1.3-0.4-2.6-0.4-4c0-1.2,0-2.5,0.2-3.7c0.3-1.6,0.8-3,1.5-4.4
	c0.1-0.2,0.2-0.3,0.4-0.2c1.6,0.3,3.3,0.2,5.1,0.1c1.4-0.2,2.8-0.5,4-1.1c0.1,0.3,0.2,0.6,0.2,1c0,0.5,0.2,1,0.5,1.3
	c0.4,0.3,0.9,0.5,1.3,0.5c0.3,0,0.6,0.1,1,0.2c-0.6,1.3-0.9,2.7-1.1,4c-0.2,1.7-0.2,3.4,0.1,5.1C30.6,67.7,30.6,67.9,30.4,68z"/>
<path class="st0" d="M17.9,69.1C17.9,69.1,17.9,69.2,17.9,69.1"/>
<path class="st0" d="M33.2,63.5c0.1-1.5,0.5-3,1.2-4.4c0.2-0.3,0.4-0.5,0.8-0.4c1.3,0.1,2.6,0,3.9-0.1c1.8-0.2,3.7-0.6,5.4-1.3
	c1-0.4,2-0.9,3-1.5c-0.1,2,0.2,4,0.9,5.8c0.2,0.6,0.4,1.2,0.7,1.7c0.1,0.3,0.1,0.5-0.1,0.7c-2.1,2.6-4.5,4.7-7.5,6
	c-2.1,0.9-4.3,1.5-6.7,1.3c-0.3,0-0.5-0.1-0.6-0.4C33.4,68.5,33,66,33.2,63.5z"/>
<path class="st0" d="M53,64.3c-0.9-1.2-1.7-2.6-2.1-4.1c-0.4-1.4-0.7-2.8-0.7-4.5c0.1-2.8,0.9-5.6,2.4-8.2c0.8-1.4,1.8-2.7,2.7-4.1
	c0.7-1,1.5-1.3,2.6-1.3c0.9,0,1.8-0.1,2.7-0.3c0.3-0.1,0.6,0,0.7,0.4c0.8,2.1,1.9,4,3.1,5.9c1.1,1.7,2.2,3.3,3.5,4.8
	c0.2,0.2,0.1,0.3,0,0.4c-0.8,1.5-1.7,3-2.9,4.3c-1.5,1.8-3.3,3.2-5.3,4.5c-1.9,1.2-3.9,2-6,2.7C53.4,64.9,53.2,64.5,53,64.3z"/>
<path class="st0" d="M71.6,52.1c1.6-2.5,3-5.1,3.9-8c0.9-2.6,1.5-7.1,0.9-11.2c-0.6-3.2-1.9-6.1-3.7-8.9c-1.3-1.9-2.7-3.6-4.3-5.2
	l-0.3-0.3c-1.6-1.6-3.3-3-5.2-4.3c-2.7-1.8-5.7-3.1-8.9-3.7c-4.1-0.6-8.6,0-11.2,0.9c-2.9,0.9-5.5,2.3-8,3.9c-0.4,0.2-0.3,0.4,0,0.7
	c3.1,2.6,6.3,4.8,10,6.5c0.7,0.3,1.4,0.6,2,0.9c1,0.4,1.7,0.7,1.3,2.3c-0.4,1.7-0.6,3.4-0.5,5.2c0.1,2.2,0.4,4.4,1.1,6.5
	c0,0.2,0.1,0.3,0.2,0.4c0,0,0,0,0.1,0.1c0,0,0.1,0.1,0.1,0.1c0.1,0.1,0.2,0.1,0.4,0.2c2.1,0.7,4.3,1,6.5,1.1c1.7,0.1,3.5,0,5.2-0.5
	c1.5-0.4,1.8,0.3,2.3,1.3c0.3,0.7,0.5,1.4,0.9,2c1.7,3.6,4,6.9,6.5,10C71.2,52.5,71.4,52.5,71.6,52.1z"/>
<path class="st0" d="M46.8,52.8c-2.1,1.5-4.4,2.3-6.9,2.8c-1.5,0.3-3.1,0.4-4.7,0.4c-1.1,0-2.1-0.2-3.2-0.3c-0.2,0-0.3-0.1-0.4-0.1
	c0,0,0,0-0.1,0l0,0c0,0,0,0,0-0.1c-0.1-0.1-0.1-0.2-0.1-0.4c-0.1-1.1-0.2-2.1-0.3-3.2c0-1.6,0.1-3.1,0.4-4.7
	c0.4-2.5,1.3-4.8,2.8-6.9c0.5-0.7,1.1-1.2,2-1.4c1.2-0.2,2.3-0.8,3.4-1.3c1.9-1,3.8-2.1,5.5-3.5c0.3,1.8,0.7,3.5,1.3,5.2
	c0.1,0.3,0.3,0.5,0.5,0.7l0.1,0.1c0.2,0.2,0.4,0.3,0.7,0.5c1.7,0.6,3.4,0.9,5.2,1.3c-1.4,1.7-2.5,3.6-3.5,5.5
	c-0.6,1.1-1.1,2.2-1.3,3.4C48.1,51.7,47.6,52.3,46.8,52.8z"/>
<path class="st0" d="M17.9,69.2C17.9,69.2,18,69.2,17.9,69.2"/>
<path class="st0" d="M23.6,53.9c1.5-0.1,3-0.5,4.4-1.2c0.3-0.2,0.5-0.4,0.4-0.8c-0.1-1.3,0-2.6,0.1-3.9c0.2-1.8,0.6-3.7,1.3-5.4
	c0.4-1,0.9-2,1.5-3c-2,0.1-4-0.2-5.8-0.9c-0.6-0.2-1.2-0.4-1.7-0.7c-0.3-0.1-0.5-0.1-0.7,0.1c-2.6,2.1-4.7,4.5-6,7.5
	c-0.9,2.1-1.5,4.3-1.3,6.7c0,0.3,0.1,0.5,0.4,0.6C18.6,53.7,21.1,54.1,23.6,53.9z"/>
<path class="st0" d="M22.8,34.1c1.2,0.9,2.6,1.7,4.1,2.1c1.4,0.4,2.8,0.7,4.5,0.7c2.8-0.1,5.6-0.9,8.2-2.4c1.4-0.8,2.7-1.8,4.1-2.7
	c1-0.7,1.3-1.5,1.3-2.6c0-0.9,0.1-1.8,0.3-2.7c0.1-0.3,0-0.6-0.4-0.7c-2.1-0.8-4-1.9-5.9-3.1c-1.7-1.1-3.3-2.2-4.8-3.5
	c-0.2-0.2-0.3-0.1-0.4,0c-1.5,0.8-3,1.7-4.3,2.9c-1.8,1.5-3.2,3.3-4.5,5.3c-1.2,1.9-2,3.9-2.7,6C22.2,33.7,22.6,33.9,22.8,34.1z"/>
</svg>
