<svg id="Layer_1" data-name="Layer 1" xmlns="http://www.w3.org/2000/svg" viewBox="0 0 100 100"><defs><style>.cls-1{fill:#fff;}</style></defs><path class="cls-1" d="M69.51,44A76.67,76.67,0,0,0,71.44,33.9c0-.35.08-.73.13-1.16.66-6.37-.21-6.92-.21-6.92h0a.25.25,0,0,0-.17-.06c-.08,0-.16.07-.24.17l-3,3.15h0c-2.51,2.52-6.29,6.28-9.8,9.8l-6.8-6.8A12.68,12.68,0,0,0,49,29.92a11.51,11.51,0,0,0-2.62-1.45c-.2-.09-.41-.17-.64-.25s-.43-.17-.66-.25a76,76,0,0,0-11-2.06l-.46-.07c-6.71-.95-6.71.35-6.71.35h0c0,.13,0,.29.26.49.44.3,7,6.9,12.78,12.73,0,0-6.69,5.75-9.13,9.18-.11.16-.23.32-.33.49h0l0,0A14.43,14.43,0,0,0,29,52.32,78.82,78.82,0,0,0,27.1,62h0s-.71,5.07-.24,7.77c0,0,0,0,0,0a.47.47,0,0,0,0,.17l0,0a.26.26,0,0,0,.07.14c.11.2.23.36.42.36a.29.29,0,0,0,.21-.12c.09-.11,3.39-3.53,4.24-4.41l8.55-8.53,7.33,7.33,0,0a.1.1,0,0,1,0,.06l.12.12a11.58,11.58,0,0,0,5.51,3.42s1.32.36,3.26.79l1.47.35c12.57,2.87,13.2,1,13.23.88s.1-.33-.22-.59-6.82-6.91-12.63-12.75L66,49.67A11.71,11.71,0,0,0,69.51,44Zm-37,18.39C30.92,64,29.75,65.15,29,65.92c0-5.18,2-12.43,2.07-13.07,1.44-4,3.89-6.09,7.51-6.09a18.79,18.79,0,0,1,7.52,1.93C43.09,51.8,36.48,58.54,32.48,62.43Zm11.44-22.1-.05,0c-.15-.16-.3-.29-.45-.43-2.93-2.89-6.21-6.14-8.49-8.5a43.13,43.13,0,0,1-3.49-3.5c5.18,0,12.43,1.94,13.07,2.07,3.11,1,4.92,2.58,5.7,4.79,1.17,3.49-.38,7.64-1.56,10.23C47.47,43.81,45.79,42.17,43.92,40.33ZM63.55,65,67,68.51c-5.18,0-12.43-1.94-13.08-2.07-3.11-1-4.91-2.59-5.69-4.79-1.16-3.51.38-7.78,1.56-10.23C52.94,54.39,59.66,61,63.55,65ZM59.92,49.47a18.88,18.88,0,0,1-7.51-1.94l3.77-3.89a10.71,10.71,0,0,0,1-.91,6.3,6.3,0,0,0,.91-1.06c2.73-2.76,5.69-5.74,7.89-7.86,1.56-1.55,2.72-2.73,3.5-3.51,0,5.18-1.94,12.43-2.07,13.08C66,47.53,63.55,49.47,59.92,49.47Z"/></svg>