<svg id="Layer_1" data-name="Layer 1" xmlns="http://www.w3.org/2000/svg" viewBox="0 0 100 100"><defs><style>.cls-1{fill:#fff;}</style></defs><path class="cls-1" d="M67.7,63.73c-3.82,2.29-10.44,3.8-18,3.8s-14.13-1.51-18-3.8a8.79,8.79,0,0,1-2.66-2.29,3.61,3.61,0,0,0,0,4.58c2.54,3.51,10.81,6.09,20.62,6.09S67.83,69.53,70.37,66a3.64,3.64,0,0,0,0-4.58A8.84,8.84,0,0,1,67.7,63.73Z"/><path class="cls-1" d="M67.7,54.58A23.61,23.61,0,0,1,62,56.87h0a47.85,47.85,0,0,1-12.27,1.5,48,48,0,0,1-12.29-1.5h0a23.44,23.44,0,0,1-5.67-2.29,9.05,9.05,0,0,1-2.66-2.29,3.61,3.61,0,0,0,0,4.58,8.52,8.52,0,0,0,2.66,2.28h0a22.87,22.87,0,0,0,5.65,2.29A47.19,47.19,0,0,0,49.75,63,47,47,0,0,0,62,61.44a23.12,23.12,0,0,0,5.66-2.29h0a8.47,8.47,0,0,0,2.65-2.28,3.61,3.61,0,0,0,0-4.58A8.91,8.91,0,0,1,67.7,54.58Z"/><path class="cls-1" d="M67.7,45.42A23.12,23.12,0,0,1,62,47.72a47.85,47.85,0,0,1-12.27,1.5,48,48,0,0,1-12.29-1.5,23.2,23.2,0,0,1-5.67-2.3,8.79,8.79,0,0,1-2.66-2.29,3.61,3.61,0,0,0,0,4.58A8.79,8.79,0,0,0,31.79,50a23.44,23.44,0,0,0,5.67,2.29h0A47.49,47.49,0,0,0,49.75,53.8,47.39,47.39,0,0,0,62,52.29h0A24,24,0,0,0,67.7,50a8.82,8.82,0,0,0,2.66-2.3,3.61,3.61,0,0,0,0-4.58A8.65,8.65,0,0,1,67.7,45.42Z"/><path class="cls-1" d="M31.79,40.84a22.87,22.87,0,0,0,5.65,2.29,47.14,47.14,0,0,0,12.31,1.52A47,47,0,0,0,62,43.13a23.13,23.13,0,0,0,5.66-2.28,8.79,8.79,0,0,0,2.66-2.29,3.82,3.82,0,0,0,.82-2.29c0-4.63-9.6-8.38-21.44-8.38s-21.43,3.75-21.43,8.38a3.85,3.85,0,0,0,.82,2.29A8.52,8.52,0,0,0,31.79,40.84Z"/></svg>