<svg id="Layer_1" data-name="Layer 1" xmlns="http://www.w3.org/2000/svg" viewBox="0 0 100 100"><defs><style>.cls-1{fill:#fff;}</style></defs><path class="cls-1" d="M31.94,69.47h0l26.87-.09A1.32,1.32,0,0,0,60,68.53L70.42,44.37a3.25,3.25,0,0,0,.21-1.83l-10,22.83a2.15,2.15,0,0,1-2,1.35l-23.34.08-.25-3,23-.07a1.34,1.34,0,0,0,1.21-.85L69.67,38.75a1.72,1.72,0,0,0,.07-.21,3.48,3.48,0,0,0-.51-3.14A2.77,2.77,0,0,0,67,34.15h0l-24.34.07a2.33,2.33,0,0,0-2.11,1.48L29.61,61.11a2.08,2.08,0,0,0,.14,1.83,1.78,1.78,0,0,0,1.28.9l.55.06-1.22,2.83a2.09,2.09,0,0,0,.22,1.93A1.67,1.67,0,0,0,31.94,69.47Zm10.6-32.06,24.19-.08-1.26,3.23-24.19.08Zm-1.9,5,24.18-.08-1.25,3.24-24.19.07Z"/></svg>