<svg id="Layer_1" data-name="Layer 1" xmlns="http://www.w3.org/2000/svg" viewBox="0 0 100 100"><defs><style>.cls-1{fill:#fff;}</style></defs><path class="cls-1" d="M50.6,45.65a14.8,14.8,0,0,0-1.84-4.47l1.84-1.84-4.86-4.86-1.83,1.83a15.47,15.47,0,0,0-4.48-1.88V31.86H32.56v2.55A15.19,15.19,0,0,0,28,36.27l-1.8-1.79-4.85,4.86,1.78,1.79a14.83,14.83,0,0,0-1.89,4.52H18.76v6.88h2.51a15.1,15.1,0,0,0,1.89,4.53l-1.78,1.79,4.85,4.86,1.8-1.8a14.91,14.91,0,0,0,4.53,1.85v2.57h6.87V63.74a15.29,15.29,0,0,0,4.48-1.87l1.83,1.84,4.86-4.86L48.76,57a15.11,15.11,0,0,0,1.84-4.46h2.62V45.65ZM35.94,56.84a7.76,7.76,0,1,1,7.75-7.75A7.76,7.76,0,0,1,35.94,56.84Z"/><path class="cls-1" d="M72.51,33.27A9.28,9.28,0,0,0,70.62,31l.77-1.43-3.76-2-.76,1.41a9.67,9.67,0,0,0-3-.32l-.46-1.53-4.09,1.23.46,1.51a9.56,9.56,0,0,0-2.36,1.91L56,31l-2,3.75,1.38.75a9.25,9.25,0,0,0-.32,3l-1.5.45L54.8,43l1.49-.45a9.24,9.24,0,0,0,1.94,2.36l-.75,1.39,3.75,2L62,47a9.25,9.25,0,0,0,3,.3l.46,1.52,4.09-1.22L69.09,46a9.55,9.55,0,0,0,2.33-1.91l1.42.77,2-3.76-1.43-.77a9.34,9.34,0,0,0,.3-3l1.56-.46-1.22-4.09Zm-6.73,9.27a4.81,4.81,0,1,1,3.23-6A4.82,4.82,0,0,1,65.78,42.54Z"/><path class="cls-1" d="M72.31,57.43a9.12,9.12,0,0,0-1.89-2.33l.77-1.42-3.75-2-.77,1.42a9.35,9.35,0,0,0-3-.32l-.46-1.53-4.09,1.22L59.58,54a9.34,9.34,0,0,0-2.36,1.91l-1.39-.74-2,3.75,1.38.74a9.31,9.31,0,0,0-.32,3l-1.49.45,1.22,4.09,1.5-.45A9.2,9.2,0,0,0,58,69.1l-.75,1.38,3.76,2,.75-1.39a9.22,9.22,0,0,0,3,.3l.45,1.52,4.09-1.23-.46-1.53a9.59,9.59,0,0,0,2.33-1.91l1.42.76,2-3.75-1.43-.78a9.28,9.28,0,0,0,.31-3l1.55-.47L73.87,57ZM65.58,66.7a4.82,4.82,0,1,1,3.24-6A4.82,4.82,0,0,1,65.58,66.7Z"/></svg>