<svg id="Layer_1" data-name="Layer 1" xmlns="http://www.w3.org/2000/svg" viewBox="0 0 100 100"><defs><style>.cls-1{fill:#fff;}</style></defs><circle class="cls-1" cx="54.88" cy="27.08" r="2.76"/><circle class="cls-1" cx="61.98" cy="20.83" r="2.76"/><circle class="cls-1" cx="62.4" cy="27.71" r="1.38"/><circle class="cls-1" cx="53.18" cy="20.83" r="1.38"/><circle class="cls-1" cx="49.89" cy="30.15" r="1.38"/><path class="cls-1" d="M67.81,74.27,54.45,52.63a4.21,4.21,0,0,1-1-2.69V36.18a.68.68,0,0,0,.61-.68V33.21a.69.69,0,0,0-.69-.69H46.6a.7.7,0,0,0-.69.69V35.5a.69.69,0,0,0,.61.68V49.94a4.21,4.21,0,0,1-1,2.69L32.19,74.27c-.45.68-.11,1.77.57,1.77H67.24C67.92,76,68.26,75,67.81,74.27ZM47.09,53.71a6.06,6.06,0,0,0,1.31-3.77V36h3.2v14a6.06,6.06,0,0,0,1.31,3.77l8,13-.13.1c-.36.12-1.44,2.28-8,1.2-5-.81-10.45-2-13.55-1.52Z"/></svg>