<svg id="Layer_1" data-name="Layer 1" xmlns="http://www.w3.org/2000/svg" viewBox="0 0 100 100"><defs><style>.cls-1{fill:#fff;}</style></defs><path class="cls-1" d="M27.52,57.21c.1,0,.13,0,.18.08A21.26,21.26,0,0,0,34,62,32.39,32.39,0,0,0,42.82,65a38.91,38.91,0,0,0,9.21.61,35.17,35.17,0,0,0,12.68-2.91,23.77,23.77,0,0,0,6.36-4.07c.44-.41.86-.83,1.26-1.27l.2-.23a24,24,0,0,1-45,.13Z"/><path class="cls-1" d="M27.51,40.67a24,24,0,0,1,45,.1c-.3-.32-.58-.62-.88-.92a23.37,23.37,0,0,0-7.2-4.73,33.94,33.94,0,0,0-8.55-2.42A39.58,39.58,0,0,0,48,32.32a35.23,35.23,0,0,0-12.55,2.87,23.21,23.21,0,0,0-7,4.64l-.69.72C27.67,40.6,27.64,40.7,27.51,40.67Z"/><path class="cls-1" d="M32.11,80.47a4.6,4.6,0,1,1,4.6-4.54A4.6,4.6,0,0,1,32.11,80.47Z"/><path class="cls-1" d="M67.65,27.37a3.64,3.64,0,1,1,0-7.28,3.6,3.6,0,0,1,3.6,3.65A3.64,3.64,0,0,1,67.65,27.37Z"/><path class="cls-1" d="M46.53,46.32A3.28,3.28,0,0,0,41.38,46l-.27.35A10.64,10.64,0,0,1,41,45.31c0-.15-.06-.21-.22-.2h-.9c-.14,0-.19,0-.18.18,0,.62.06,1.25.07,1.88V56c0,.14,0,.19.19.19h1c.22,0,.28-.06.28-.27,0-1.23,0-2.47,0-3.7,0-.07,0-.16,0-.23h0l.09.11a2.66,2.66,0,0,0,1.3.88,3.46,3.46,0,0,0,3.69-1.16A5.09,5.09,0,0,0,46.53,46.32Zm-1.15,4.57a2.14,2.14,0,0,1-2.49,1,2.17,2.17,0,0,1-1.66-2.11c0-.23,0-.46,0-.69h0c0-.28,0-.56,0-.84a2.43,2.43,0,0,1,2.46-2.22,2,2,0,0,1,1.68,1.08A3.79,3.79,0,0,1,45.38,50.89Z"/><path class="cls-1" d="M69.5,47.2a2.86,2.86,0,0,0-1.91-2.07,3.53,3.53,0,0,0-4.25,1.71,5.46,5.46,0,0,0-.55,2.81A3.63,3.63,0,0,0,65.21,53a4.57,4.57,0,0,0,1.68.21,7,7,0,0,0,2.25-.42c.13-.05.17-.11.13-.25s-.11-.47-.16-.71-.08-.18-.23-.12a5.6,5.6,0,0,1-2,.35,2.53,2.53,0,0,1-2.66-2.41c0-.26,0-.28.25-.28h5c.18,0,.25-.06.25-.24A6.69,6.69,0,0,0,69.5,47.2Zm-1.08.85c0,.15-.09.16-.2.16H64.41c-.15,0-.21,0-.19-.2a2.35,2.35,0,0,1,2.4-2.11A2,2,0,0,1,68.42,48.05Z"/><path class="cls-1" d="M52.05,51.26c.07,0,.07-.12.09-.18.59-1.95,1.29-3.86,1.93-5.79a.23.23,0,0,1,.26-.19h1c.28,0,.28,0,.18.27-.63,1.64-1.26,3.29-1.9,4.93-.41,1.07-.84,2.13-1.34,3.16a7.6,7.6,0,0,1-1.12,1.74,4.29,4.29,0,0,1-1.91,1.27c-.21.06-.29,0-.34-.19a7.15,7.15,0,0,0-.23-.79c0-.12,0-.18.12-.22a4.28,4.28,0,0,0,2.27-2.14,1,1,0,0,0,0-.9c-.91-2.22-1.8-4.45-2.7-6.67-.2-.49-.2-.49.32-.49h.87a.24.24,0,0,1,.27.19c.7,2,1.52,3.88,2.11,5.87A.5.5,0,0,0,52.05,51.26Z"/><path class="cls-1" d="M35.78,51.74a.67.67,0,0,0-.2.22,3,3,0,0,1-3.5,1,2.43,2.43,0,0,1-1.46-1.74,4.47,4.47,0,0,1-.19-1.31V45.35c0-.19.05-.25.24-.24h1c.18,0,.24.06.23.24v3.58A6.69,6.69,0,0,0,32,50.54a1.59,1.59,0,0,0,1.16,1.31,2,2,0,0,0,2.5-1.91c0-1.53,0-3.07,0-4.6,0-.22.06-.3.29-.28h.93c.17,0,.24,0,.24.23,0,1.77,0,3.54,0,5.31,0,.7,0,1.4,0,2.1,0,.19,0,.27-.24.26a5.21,5.21,0,0,0-.79,0c-.18,0-.25-.06-.26-.24S35.8,52.09,35.78,51.74Z"/><path class="cls-1" d="M31.11,28.45a2.64,2.64,0,1,1-2.6-2.64A2.63,2.63,0,0,1,31.11,28.45Z"/><path class="cls-1" d="M59.48,48.67c0,.66-.06,1.47,0,2.28a1,1,0,0,0,1.12,1,1.87,1.87,0,0,0,.53,0c.17,0,.24,0,.24.19s0,.47,0,.7,0,.15-.1.17a2.73,2.73,0,0,1-2.5-.25,2.18,2.18,0,0,1-.79-1.78c0-1.35,0-2.71,0-4.07,0-.22.09-.5-.05-.64s-.41,0-.62,0c-.56,0-.56,0-.56-.55s0-.52.51-.52h.48c.2,0,.28-.05.27-.26,0-.47,0-.94,0-1.41,0-.2.07-.28.25-.31a9.28,9.28,0,0,0,.91-.22c.2-.06.24,0,.24.2,0,.59,0,1.19,0,1.78,0,.18.06.23.24.23h1.6c.17,0,.25,0,.24.24s0,.42,0,.64-.06.2-.21.2H59.75c-.21,0-.28,0-.28.27C59.48,47.13,59.48,47.83,59.48,48.67Z"/><path class="cls-1" d="M27.79,49.18c0,1.15,0,2.29,0,3.43a4.27,4.27,0,0,1-.7,2.41,3,3,0,0,1-2,1.2,2.56,2.56,0,0,1-.55.05c-.11,0-.16,0-.18-.15s-.07-.51-.11-.76.06-.15.17-.16a2.58,2.58,0,0,0,1.1-.38,1.5,1.5,0,0,0,.67-1,7.36,7.36,0,0,0,.14-1.56V45.38c0-.33,0-.33.33-.33s.59,0,.89,0,.24.06.23.24v3.89Z"/><path class="cls-1" d="M73.17,46.57c.09,0,.08-.11.1-.16a2.45,2.45,0,0,1,2.27-1.52c.17,0,.23.06.22.23s0,.6,0,.9-.06.23-.24.23A2,2,0,0,0,73.34,48a6.62,6.62,0,0,0-.06.88v3.72c0,.32,0,.32-.32.32h-.88c-.16,0-.22,0-.22-.21,0-1.67,0-3.34,0-5,0-.82,0-1.63,0-2.45,0-.14,0-.18.16-.18H73c.15,0,.19.06.19.2v1.06C73.14,46.43,73.12,46.51,73.17,46.57Z"/></svg>