<svg id="Layer_1" data-name="Layer 1" xmlns="http://www.w3.org/2000/svg" viewBox="0 0 100 100"><defs><style>.cls-1{fill:#fff;}</style></defs><path id="path7602" class="cls-1" d="M65.35,59.77A7,7,0,0,0,62,55.05a7.31,7.31,0,0,0-5.72-1,8.15,8.15,0,0,0-3.14,1.46l-2.59-1.57a10.94,10.94,0,0,0,.68-3.82,9.15,9.15,0,0,0-.79-3.93l2.36-1.68a7.88,7.88,0,0,0,5,1.91,6.81,6.81,0,0,0,4-1.24,7.61,7.61,0,0,0,2.36-10.44,8,8,0,0,0-4.72-3.37,7.31,7.31,0,0,0-5.72,1,8,8,0,0,0-3.37,4.72,7.07,7.07,0,0,0,.23,4L48.4,42.7a11.16,11.16,0,0,0-6.29-3.59V36.3A7.56,7.56,0,0,0,47.73,29a7.64,7.64,0,1,0-15.27,0,7.47,7.47,0,0,0,5.61,7.29v2.81a11.07,11.07,0,0,0,0,21.78V63.7A7.57,7.57,0,0,0,32.46,71a7.64,7.64,0,1,0,15.27,0,7.47,7.47,0,0,0-5.62-7.29V61a10.6,10.6,0,0,0,6.4-3.7l2.25,1.34A7.27,7.27,0,0,0,50.42,63a7,7,0,0,0,3.37,4.72,7.75,7.75,0,0,0,4,1.23,7.65,7.65,0,0,0,6.4-3.48A7,7,0,0,0,65.35,59.77ZM54.35,38A3.65,3.65,0,0,1,56,35.63a3.89,3.89,0,0,1,2-.56,1.92,1.92,0,0,1,.78.11,3.65,3.65,0,0,1,2.36,1.68,3.5,3.5,0,0,1,.45,2.81A3.63,3.63,0,0,1,60,42a3.47,3.47,0,0,1-2.8.45,3.63,3.63,0,0,1-2.36-1.69A4,4,0,0,1,54.35,38ZM36.5,29a3.71,3.71,0,1,1,3.71,3.7A3.66,3.66,0,0,1,36.5,29Zm7.41,42.1a3.71,3.71,0,1,1-3.7-3.71A3.73,3.73,0,0,1,43.91,71.11ZM40.21,57.3a7.19,7.19,0,1,1,7.18-7.19A7.24,7.24,0,0,1,40.21,57.3Zm20.88,6.06a3.77,3.77,0,0,1-5.17,1.12,3.75,3.75,0,0,1,1.13-6.85,1.92,1.92,0,0,1,.78-.11,4.66,4.66,0,0,1,2,.56,4,4,0,0,1,1.69,2.36A3.77,3.77,0,0,1,61.09,63.36Z"/></svg>