<svg id="Layer_1" data-name="Layer 1" xmlns="http://www.w3.org/2000/svg" viewBox="0 0 100 100"><defs><style>.cls-1{fill:#fff;}</style></defs><path class="cls-1" d="M37,71.2a2,2,0,0,1,1.64,1.21,6.29,6.29,0,0,0,9.63,2v-4H46.33a2.79,2.79,0,0,1-2.22,1.1,2.84,2.84,0,0,1,0-5.67A2.79,2.79,0,0,1,46.33,67h1.91V53.88c-1.32,0-3.55,0-7.33,0A2.78,2.78,0,0,1,38.71,55h0a2.83,2.83,0,0,1,0-5.66h0a2.79,2.79,0,0,1,2.2,1.11h7.31V45.86H41.16V37.43H39.81a2.79,2.79,0,0,1-2.21,1.09,2.83,2.83,0,1,1,0-5.66A2.79,2.79,0,0,1,39.81,34h4.82v8.44h3.61v-21a4.51,4.51,0,0,0-.55-.39,6,6,0,0,0-4.64-.61,7.06,7.06,0,0,0-4.37,3.19,2.2,2.2,0,0,1-1.79,1.26,6.9,6.9,0,0,0-5.56,4,6.28,6.28,0,0,0,.52,6.37,1.69,1.69,0,0,1,0,2.13,5.65,5.65,0,0,0-1.15,3.48,1.83,1.83,0,0,1-.86,1.6,6.61,6.61,0,0,0,0,11.18,1.92,1.92,0,0,1,.9,1.69,5.32,5.32,0,0,0,.46,2.21h6.06a2.78,2.78,0,0,1,2.21-1.09,2.83,2.83,0,0,1,0,5.66A2.8,2.8,0,0,1,37.24,61H31.75a6.24,6.24,0,0,0-.55,6A7,7,0,0,0,37,71.2Z"/><path class="cls-1" d="M73.24,48a6.83,6.83,0,0,0-3-5.53h0a2,2,0,0,1-1-1.78q0-.28,0-.6H67.56a2.78,2.78,0,0,1-2.21,1.09,2.83,2.83,0,1,1,0-5.66,2.79,2.79,0,0,1,2.21,1.1h.26a1.92,1.92,0,0,1,.39-1.54,6.22,6.22,0,0,0,.48-6.24,6.94,6.94,0,0,0-5.5-4,2.21,2.21,0,0,1-1.82-1.16,6.83,6.83,0,0,0-5.9-3.47,5.33,5.33,0,0,0-3.64,1.15V28.7h2.65a2.8,2.8,0,0,1,2.21-1.09,2.83,2.83,0,1,1,0,5.66,2.8,2.8,0,0,1-2.21-1.09H51.83V48l7.75,0v-.32a2.79,2.79,0,0,1-1.1-2.21,2.83,2.83,0,1,1,5.66,0,2.78,2.78,0,0,1-1.09,2.21V51.4l-11.22.07V54.7h7V63h2.52a2.79,2.79,0,0,1,2.21-1.1,2.83,2.83,0,0,1,0,5.66,2.78,2.78,0,0,1-2.21-1.09h-6V58.18H51.83V74.43a6.46,6.46,0,0,0,5,1.33,6.2,6.2,0,0,0,4.35-3,3.27,3.27,0,0,1,2.48-1.72A6.84,6.84,0,0,0,68.78,67a6.28,6.28,0,0,0-.6-6.11,1.76,1.76,0,0,1,0-2.24,5.39,5.39,0,0,0,1.11-3.36,1.89,1.89,0,0,1,.9-1.7A6.87,6.87,0,0,0,73.24,48Z"/></svg>