<svg id="Layer_1" data-name="Layer 1" xmlns="http://www.w3.org/2000/svg" viewBox="0 0 100 100"><defs><style>.cls-1{fill:#fff;}</style></defs><path class="cls-1" d="M69.09,60.51l-3.37,3.38a5.65,5.65,0,0,1-.76.63c-4.75,3.36-14.65-.18-22.84-8.37S30.39,38.06,33.74,33.31a5.15,5.15,0,0,1,.64-.76l3.37-3.38a3.31,3.31,0,0,1,4.68,0l2.67,2.67a3.31,3.31,0,0,1,0,4.68l-2,2a3.51,3.51,0,0,0-.47,4.39,41.08,41.08,0,0,0,5.68,7,40.51,40.51,0,0,0,7,5.68,3.52,3.52,0,0,0,4.39-.46l2-2a3.31,3.31,0,0,1,4.68,0l2.67,2.67A3.3,3.3,0,0,1,69.09,60.51Z"/></svg>