<svg id="Layer_1" data-name="Layer 1" xmlns="http://www.w3.org/2000/svg" viewBox="0 0 100 100"><defs><style>.cls-1{fill:#fff;}</style></defs><path class="cls-1" d="M49.61,25a29.34,29.34,0,0,0-5.42.49c-4.82.84-5.66,2.59-5.66,5.9v4.34H49.85v1.44H34.31a7.1,7.1,0,0,0-7,5.72,21.42,21.42,0,0,0,0,11.51c.79,3.37,2.72,5.72,6,5.72h3.92V55a7.22,7.22,0,0,1,7-7.05H55.51a5.72,5.72,0,0,0,5.67-5.78V31.35c0-3.07-2.6-5.37-5.67-5.91A33,33,0,0,0,49.61,25ZM43.46,27.4a3.22,3.22,0,1,1-3.13,3.22A3.14,3.14,0,0,1,43.46,27.4Z"/><path class="cls-1" d="M63.66,38.51v5a7.25,7.25,0,0,1-7.1,7.17H45.29a5.8,5.8,0,0,0-5.66,5.78V67.24c0,3.08,2.65,4.88,5.66,5.79a18.68,18.68,0,0,0,11.33,0c2.83-.84,5.66-2.47,5.66-5.79V62.91H51V61.46h17c3.25,0,4.52-2.29,5.66-5.72s1.15-6.92,0-11.5c-.78-3.26-2.35-5.72-5.66-5.72ZM57.28,64.76A3.21,3.21,0,1,1,54.15,68,3.18,3.18,0,0,1,57.28,64.76Z"/></svg>