<svg id="Layer_1" data-name="Layer 1" xmlns="http://www.w3.org/2000/svg" viewBox="0 0 100 100"><defs><style>.cls-1{fill:#fff;}</style></defs><path class="cls-1" d="M76.16,49.88v1.28a.9.9,0,0,1-.89.9H24.73a.89.89,0,0,1-.89-.9V49.88a.89.89,0,0,1,.89-.89h1.16A24.75,24.75,0,0,1,47.58,30a2.88,2.88,0,1,1,5.66-.72,2.63,2.63,0,0,1-.12.8,24.77,24.77,0,0,1,21,19h1.16A.89.89,0,0,1,76.16,49.88Z"/><path class="cls-1" d="M49.53,56.37c-.77,0-1.54,0-2.31,0a8,8,0,0,0-6.73,2.94q-2.22,2.54-4.49,5c-.33.35-.35.57,0,.93,1.58,1.55,3.14,3.13,4.69,4.72.31.32.51.34.84,0,.68-.62,1.45-1.14,2.1-1.78a5.76,5.76,0,0,1,4.19-1.6c1.89,0,3.78-.06,5.68,0a5.23,5.23,0,0,0,4-1.64c2-2.07,3.85-4.32,5.75-6.51a1.42,1.42,0,0,0,.2-.28,1.47,1.47,0,0,0-.25-2.06,1.4,1.4,0,0,0-2,.22c-1.4,1.44-2.81,2.88-4.17,4.36a4.27,4.27,0,0,1-3.56,1.42c-1.12-.07-2.25,0-3.37,0s-1.53-.51-1.49-1.26.59-1.14,1.5-1.16h2.57a3.94,3.94,0,0,0,1.73-.34,1.44,1.44,0,0,0,.89-1.57A1.42,1.42,0,0,0,54,56.5a4.18,4.18,0,0,0-.71-.09H49.53Z"/><path class="cls-1" d="M33.5,66.45c1.86,1.89,3.84,3.69,5.67,5.58-.55.49-1.15.91-1.7,1.4-.32.3-.51.27-.81,0q-2.25-2.28-4.54-4.52c-.34-.34-.33-.55,0-.89C32.58,67.48,33,67,33.5,66.45Z"/></svg>