<svg id="Layer_1" data-name="Layer 1" xmlns="http://www.w3.org/2000/svg" viewBox="0 0 100 100"><defs><style>.cls-1{fill:#fff;}</style></defs><path class="cls-1" d="M74.41,55.06A25.19,25.19,0,0,0,24.7,63.27,3.3,3.3,0,0,0,28,66.06H71.22a3.32,3.32,0,0,0,3.28-2.82A25.28,25.28,0,0,0,74.41,55.06Zm-44.79,7a2.65,2.65,0,1,1,2.64-2.64A2.64,2.64,0,0,1,29.62,62.08Zm20-25.24A2.62,2.62,0,1,1,47,39.46,2.62,2.62,0,0,1,49.6,36.84ZM37.27,47.11a2.55,2.55,0,1,1,0-3.6A2.53,2.53,0,0,1,37.27,47.11Zm15.23,14a3.44,3.44,0,0,1-6-3.36A3.4,3.4,0,0,1,48.9,56l7.18-9.17a.25.25,0,0,1,.43.24l-3.85,11A3.46,3.46,0,0,1,52.5,61.09Zm13-14a2.53,2.53,0,1,1,0-3.58A2.53,2.53,0,0,1,65.51,47.1ZM69.57,62a2.54,2.54,0,1,1,2.54-2.54A2.54,2.54,0,0,1,69.57,62Z"/></svg>